<?xml version="1.0" encoding="utf-8"?>
<!-- Generator: Adobe Illustrator 22.1.0, SVG Export Plug-In . SVG Version: 6.00 Build 0)  -->
<svg version="1.1" id="Layer_1" xmlns="http://www.w3.org/2000/svg" xmlns:xlink="http://www.w3.org/1999/xlink" x="0px" y="0px"
	 viewBox="0 0 1812.5 500" style="enable-background:new 0 0 1812.5 500;" xml:space="preserve">
<style type="text/css">
	.st0{fill:#348371;}
	.st1{fill:#333333;}
</style>
<g>
	<g>
		<path class="st0" d="M537.9,250c0,93.4-75.7,169.1-169.1,169.1H178.6L291.8,304c0,0,3.5,2.8,8.6,6.9c9.1,7.3,23.6,18.5,33.2,24.7
			c11.6,7.6,23.4,12.2,35.3,13.8c3.3,0.5,6.7,0.7,10,0.7c17.4,0,33.6-5.7,48.4-16.9s22.3-25.7,22.3-43.3c0-14.2-3.7-26.5-11.2-36.9
			c-7.5-10.4-17-18.3-28.6-23.7c-11.6-5.4-22.8-10.2-33.7-14.2c-10.9-4.1-19.3-7.5-25.4-10.1s-11.5-6.3-16.2-10.8
			c-4.7-4.5-7.1-10.2-7.1-16.9c0-6.4,3.1-11.7,9.3-16s12.9-6.4,20.2-6.4c10.8,0,20,2,27.8,6c7.7,4,15.5,10.5,23.4,19.6
			s26.2,39.9,26.2,39.9l62.3-81.5C522.3,168.7,537.9,207.5,537.9,250z"/>
		<path class="st1" d="M474.8,118.2c-10.9,31.5-29.9,66.2-58.3,54.3c-9.3-5-27.7-15.4-27.7-15.4c-9.6-4.8-19.4-7.2-29.6-7.2
			c-18.3,0-34.4,6.1-48.5,18.1c-14,12-21,26.8-21,44.2c0,22.2,6.7,37.3,20,45.3c11.1,6.8,21.6,12.4,31.8,16.8
			c2.1,0.9,4.1,1.8,6.1,2.6c7.3,2.9,14.4,5.8,21.3,8.5c4.3,1.7,8.5,3.3,12.5,4.9c10.7,4.2,18,8.5,22.1,12.9
			c4.1,4.5,6.1,10.5,6.1,18.1c0,6.4-2.7,11.9-8.3,16.5c-5.5,4.6-12.6,6.9-21.3,6.9c-3.9,0-7.6-0.3-11.2-0.7
			c-10.5-1.5-20.1-5.1-28.6-11c-11.4-7.8-20.7-17.6-27.7-29.4c-0.5-0.7-0.9-1.5-1.3-2.4c-7.1-13.4-17.5-42.9-18.5-46.5l-75,71.1
			c-11.4-22.8-17.9-48.5-17.9-75.8c0-93.4,75.7-169.1,169.1-169.1C409,80.9,445.8,94.9,474.8,118.2z"/>
	</g>
	<g>
		<g>
			<path class="st1" d="M743,189.8c-0.7-6.9-3.6-12.2-8.8-16c-5.2-3.8-12.2-5.7-21-5.7c-6,0-11.1,0.8-15.2,2.5
				c-4.1,1.7-7.3,4-9.5,6.9c-2.2,2.9-3.3,6.3-3.3,10c-0.1,3.1,0.6,5.8,2,8.2c1.4,2.3,3.4,4.3,6,6c2.5,1.7,5.5,3.1,8.8,4.3
				c3.3,1.2,6.9,2.3,10.7,3.1l15.6,3.7c7.6,1.7,14.6,4,20.9,6.8c6.3,2.8,11.8,6.3,16.5,10.5c4.6,4.1,8.3,9,10.8,14.6
				c2.6,5.6,3.9,12,4,19.3c-0.1,10.7-2.8,19.9-8.1,27.7c-5.4,7.8-13.1,13.8-23.1,18.1c-10.1,4.3-22.2,6.4-36.3,6.4
				c-14,0-26.3-2.2-36.7-6.5c-10.4-4.3-18.5-10.7-24.3-19.2c-5.8-8.5-8.9-19-9.1-31.5h35.6c0.4,5.8,2.1,10.7,5.1,14.6
				c3,3.9,7,6.8,12,8.8c5,2,10.7,2.9,17,2.9c6.2,0,11.7-0.9,16.3-2.7c4.6-1.8,8.2-4.3,10.7-7.6c2.5-3.2,3.8-6.9,3.8-11.1
				c0-3.9-1.1-7.2-3.4-9.9c-2.3-2.7-5.6-4.9-10-6.8c-4.4-1.9-9.8-3.6-16.1-5.1l-18.9-4.8c-14.7-3.6-26.3-9.1-34.8-16.7
				c-8.5-7.6-12.7-17.8-12.7-30.7c-0.1-10.5,2.8-19.7,8.5-27.6c5.7-7.9,13.5-14,23.5-18.4c10-4.4,21.3-6.6,34-6.6
				c12.9,0,24.2,2.2,33.9,6.6c9.7,4.4,17.2,10.6,22.6,18.4c5.4,7.9,8.2,17,8.3,27.4H743z"/>
			<path class="st1" d="M792.6,362.7V183.2h35.7v21.9h1.6c1.6-3.5,3.9-7.1,6.9-10.7c3-3.7,7-6.7,11.9-9.2c4.9-2.5,11-3.7,18.3-3.7
				c9.5,0,18.3,2.5,26.3,7.4c8,5,14.5,12.4,19.3,22.3c4.8,9.9,7.2,22.4,7.2,37.3c0,14.6-2.3,26.8-7,36.8c-4.7,10-11,17.6-19,22.7
				c-8,5.1-17,7.7-26.9,7.7c-7,0-13-1.2-17.9-3.5c-4.9-2.3-8.9-5.3-12-8.8c-3.1-3.5-5.5-7.1-7.1-10.7h-1.1v69.8H792.6z M828.1,248.5
				c0,7.8,1.1,14.5,3.2,20.3c2.2,5.8,5.3,10.3,9.3,13.5c4.1,3.2,9,4.8,14.9,4.8c5.9,0,10.9-1.6,15-4.9c4.1-3.3,7.2-7.8,9.3-13.6
				c2.1-5.8,3.2-12.5,3.2-20.1c0-7.5-1-14.2-3.1-19.9c-2.1-5.7-5.2-10.2-9.3-13.4s-9.1-4.8-15-4.8c-5.9,0-10.9,1.6-14.9,4.7
				c-4.1,3.1-7.2,7.5-9.3,13.3C829.1,234,828.1,240.7,828.1,248.5z"/>
			<path class="st1" d="M991.5,316.3c-13.4,0-25-2.7-34.6-8.2c-9.7-5.5-17.1-13.2-22.3-23.3c-5.2-10.1-7.8-22-7.8-35.7
				c0-13.4,2.6-25.2,7.8-35.3c5.2-10.1,12.6-18,22.1-23.7c9.5-5.7,20.6-8.5,33.4-8.5c8.6,0,16.6,1.4,24.1,4.1
				c7.4,2.7,14,6.9,19.5,12.4c5.6,5.5,9.9,12.4,13,20.7c3.1,8.3,4.7,18,4.7,29.1v9.9H941.2v-22.4h76.1c0-5.2-1.1-9.8-3.4-13.9
				c-2.3-4-5.4-7.2-9.4-9.5c-4-2.3-8.6-3.4-13.9-3.4c-5.5,0-10.4,1.3-14.6,3.8c-4.2,2.5-7.5,5.9-9.9,10.1c-2.4,4.2-3.6,8.9-3.7,14.1
				v21.3c0,6.5,1.2,12,3.6,16.7c2.4,4.7,5.8,8.3,10.2,10.9c4.4,2.5,9.7,3.8,15.7,3.8c4,0,7.7-0.6,11-1.7c3.3-1.1,6.2-2.8,8.6-5.1
				c2.4-2.3,4.2-5,5.4-8.3l33.5,2.2c-1.7,8-5.2,15.1-10.4,21c-5.2,6-12,10.6-20.2,13.9C1011.7,314.6,1002.2,316.3,991.5,316.3z"/>
			<path class="st1" d="M1113.5,315.9c-9.9,0-18.9-2.6-26.9-7.7c-8-5.1-14.4-12.7-19-22.7c-4.7-10-7-22.3-7-36.8
				c0-15,2.4-27.4,7.2-37.3c4.8-9.9,11.2-17.4,19.2-22.3c8-5,16.8-7.4,26.4-7.4c7.3,0,13.4,1.2,18.3,3.7c4.9,2.5,8.9,5.5,11.9,9.2
				c3,3.7,5.3,7.2,6.9,10.7h1.1v-21.9h36.1v130.5h-35.7v-20.9h-1.5c-1.7,3.6-4.1,7.2-7.2,10.7c-3.1,3.5-7.1,6.5-12,8.8
				C1126.5,314.7,1120.6,315.9,1113.5,315.9z M1125,287c5.8,0,10.8-1.6,14.8-4.8c4-3.2,7.2-7.7,9.3-13.5c2.2-5.8,3.3-12.5,3.3-20.3
				c0-7.8-1.1-14.5-3.2-20.2c-2.2-5.7-5.3-10.1-9.3-13.3c-4.1-3.1-9-4.7-14.9-4.7c-5.9,0-11,1.6-15,4.8s-7.2,7.7-9.3,13.4
				c-2.1,5.7-3.1,12.4-3.1,19.9c0,7.6,1.1,14.3,3.2,20.1c2.1,5.8,5.2,10.3,9.3,13.6C1114.1,285.4,1119.1,287,1125,287z"/>
			<path class="st1" d="M1205.5,313.7v-174h36.2v174H1205.5z M1238.3,276.2l0.1-43.4h5.3l41.8-49.5h41.6l-56.2,65.6h-8.6
				L1238.3,276.2z M1287.1,313.7l-38.4-56.8l24.1-25.6l56.7,82.4H1287.1z"/>
			<path class="st1" d="M1452.8,139.7h36.8v113c0,12.7-3,23.8-9,33.3c-6,9.5-14.5,16.9-25.3,22.2c-10.8,5.3-23.4,7.9-37.8,7.9
				c-14.4,0-27.1-2.6-37.9-7.9c-10.8-5.3-19.2-12.7-25.2-22.2c-6-9.5-9-20.6-9-33.3v-113h36.8v109.9c0,6.6,1.5,12.5,4.4,17.7
				c2.9,5.2,7,9.2,12.4,12.2c5.3,2.9,11.5,4.4,18.6,4.4c7.1,0,13.4-1.5,18.7-4.4c5.3-2.9,9.4-7,12.3-12.2c2.9-5.2,4.4-11,4.4-17.7
				V139.7z"/>
			<path class="st1" d="M1504.8,362.7V183.2h35.7v21.9h1.6c1.6-3.5,3.9-7.1,6.9-10.7c3-3.7,7-6.7,11.9-9.2c4.9-2.5,11-3.7,18.3-3.7
				c9.5,0,18.3,2.5,26.3,7.4c8,5,14.5,12.4,19.3,22.3c4.8,9.9,7.2,22.4,7.2,37.3c0,14.6-2.3,26.8-7,36.8c-4.7,10-11,17.6-19,22.7
				c-8,5.1-17,7.7-26.9,7.7c-7,0-13-1.2-17.9-3.5c-4.9-2.3-8.9-5.3-12-8.8c-3.1-3.5-5.5-7.1-7.1-10.7h-1.1v69.8H1504.8z
				 M1540.3,248.5c0,7.8,1.1,14.5,3.2,20.3c2.2,5.8,5.3,10.3,9.3,13.5c4.1,3.2,9,4.8,14.9,4.8c5.9,0,10.9-1.6,15-4.9
				c4.1-3.3,7.2-7.8,9.3-13.6c2.1-5.8,3.2-12.5,3.2-20.1c0-7.5-1-14.2-3.1-19.9c-2.1-5.7-5.2-10.2-9.3-13.4s-9.1-4.8-15-4.8
				c-5.9,0-10.9,1.6-14.9,4.7c-4.1,3.1-7.2,7.5-9.3,13.3C1541.4,234,1540.3,240.7,1540.3,248.5z"/>
		</g>
	</g>
</g>
</svg>
