<?xml version="1.0" encoding="utf-8"?>
<!-- Generator: Adobe Illustrator 22.1.0, SVG Export Plug-In . SVG Version: 6.00 Build 0)  -->
<svg version="1.1" id="Layer_1" xmlns="http://www.w3.org/2000/svg" xmlns:xlink="http://www.w3.org/1999/xlink" x="0px" y="0px"
	 viewBox="0 0 1508 1476" style="enable-background:new 0 0 1508 1476;" xml:space="preserve">
<style type="text/css">
	.st0{fill:#348371;}
	.st1{fill:#333333;}
</style>
<g>
	<path class="st0" d="M1096.8,738c0,178.2-144.4,322.6-322.6,322.6h-363L627.1,841c0,0,6.6,5.3,16.4,13.1
		c17.4,13.8,45.1,35.3,63.2,47.1c22.2,14.5,44.7,23.2,67.4,26.4c6.3,0.9,12.7,1.3,19,1.3c33.3,0,64-10.8,92.3-32.3
		c28.3-21.5,42.5-49,42.5-82.5c0-27.1-7.1-50.5-21.3-70.4c-14.2-19.8-32.4-34.9-54.6-45.2s-43.6-19.4-64.3-27.2
		c-20.7-7.7-36.8-14.2-48.5-19.3c-11.7-5.1-22-11.9-31-20.6c-9-8.6-13.5-19.4-13.5-32.3c0-12.2,5.8-22.4,17.8-30.5
		c11.9-8.1,24.6-12.2,38.5-12.2c20.6,0,38.2,3.8,53,11.4c14.7,7.6,29.6,20.1,44.6,37.3c15,17.3,49.9,76.2,49.9,76.2L1017.5,526
		C1066.9,582.8,1096.8,656.8,1096.8,738z"/>
	<path class="st1" d="M976.4,486.5c-20.8,60.1-57,126.2-111.3,103.5c-17.7-9.5-52.8-29.5-52.8-29.5c-18.3-9.1-37.1-13.7-56.4-13.7
		c-34.9,0-65.7,11.6-92.5,34.5c-26.8,23-40.1,51.2-40.1,84.3c0,42.3,12.7,71.1,38.1,86.4c21.1,13,41.3,23.6,60.6,32.1
		c3.9,1.8,7.7,3.4,11.6,5c14,5.6,27.6,11,40.6,16.3c8.1,3.2,16.1,6.3,23.9,9.4c20.3,8,34.4,16.1,42.2,24.6
		c7.7,8.5,11.7,19.9,11.7,34.5c0,12.2-5.2,22.7-15.7,31.5c-10.5,8.8-24,13.2-40.6,13.2c-7.4,0-14.5-0.5-21.3-1.4
		c-20.1-2.8-38.4-9.8-54.6-21c-21.8-14.9-39.5-33.7-52.8-56.1c-0.9-1.4-1.7-2.9-2.5-4.6c-13.5-25.5-33.4-81.9-35.3-88.6L485.8,882.7
		c-21.8-43.6-34.2-92.6-34.2-144.7c0-178.2,144.4-322.6,322.6-322.6C850.8,415.4,921,442.1,976.4,486.5z"/>
</g>
</svg>
